<!DOCTYPE svg PUBLIC "-//W3C//DTD SVG 1.1//EN" "http://www.w3.org/Graphics/SVG/1.1/DTD/svg11.dtd">
<!-- Uploaded to: SVG Repo, www.svgrepo.com, Transformed by: SVG Repo Mixer Tools -->
<svg version="1.1" id="Layer_1" xmlns="http://www.w3.org/2000/svg" xmlns:xlink="http://www.w3.org/1999/xlink" viewBox="0 0 512 512" xml:space="preserve" width="800px" height="800px" fill="#000000">
<g id="SVGRepo_bgCarrier" stroke-width="0"/>
<g id="SVGRepo_tracerCarrier" stroke-linecap="round" stroke-linejoin="round"/>
<g id="SVGRepo_iconCarrier"> <rect x="79.448" y="194.207" style="fill:#76B580;" width="17.655" height="123.586"/> <g> <path style="fill:#FFD246;" d="M88.276,61.793c-14.603,0-26.483,11.88-26.483,26.483c0,6.508,2.65,20.703,6.931,32.285 c1.284,3.47,4.59,5.768,8.28,5.768c0.039,0,0.077,0,0.12,0l22.655-0.306c3.663-0.052,6.914-2.358,8.172-5.798 c4.204-11.51,6.807-25.544,6.807-31.949C114.759,73.673,102.879,61.793,88.276,61.793z"/> <path style="fill:#FFD246;" d="M88.276,203.034c14.603,0,26.483-11.88,26.483-26.483c0-6.508-2.65-20.703-6.931-32.285 c-1.284-3.47-4.59-5.768-8.28-5.768c-0.039,0-0.077,0-0.12,0l-22.655,0.306c-3.663,0.052-6.914,2.358-8.172,5.798 c-4.204,11.51-6.807,25.544-6.807,31.949C61.793,191.155,73.673,203.034,88.276,203.034z"/> </g> <path style="fill:#82D78C;" d="M360.303,169.352c5.045,22.044-1.654,47.011-19.831,65.188s-43.145,24.876-65.188,19.831 c-5.045-22.044,1.654-47.011,19.831-65.188S338.259,164.308,360.303,169.352z"/> <path style="fill:#A0EB87;" d="M360.303,169.353l-85.02,85.02l0,0c-5.045-22.044,1.654-47.011,19.831-65.188 S338.259,164.308,360.303,169.353L360.303,169.353z"/> <path style="fill:#82D78C;" d="M151.697,169.352c-5.045,22.044,1.654,47.011,19.831,65.188s43.145,24.876,65.188,19.831 c5.045-22.044-1.654-47.011-19.831-65.188S173.741,164.308,151.697,169.352z"/> <path style="fill:#A0EB87;" d="M151.697,169.353l85.02,85.02l0,0c5.045-22.044-1.654-47.011-19.831-65.188 S173.741,164.308,151.697,169.353L151.697,169.353z"/> <path style="fill:#76B580;" d="M324.061,205.646c-3.448-3.448-9.035-3.448-12.483,0l-46.75,46.746v-84.669 c0-4.875-3.953-8.828-8.828-8.828s-8.828,3.953-8.828,8.828v84.621l-46.75-46.75c-3.448-3.448-9.035-3.448-12.483,0 s-3.448,9.035,0,12.483l59.233,59.233v40.481h17.655v-40.436l59.233-59.229C327.509,214.681,327.509,209.095,324.061,205.646z"/> <g> <path style="fill:#AA6EFF;" d="M340.094,145.655c7.302-12.647,2.954-28.874-9.694-36.177c-6.141-3.545-33.348-15.247-53.306-20.455 c-3.833-0.999-7.862,0.678-9.857,4.099l-9.082,15.585c-0.007,0.011-0.011,0.019-0.018,0.03c-1.985,3.438-1.43,7.779,1.359,10.61 c14.479,14.696,38.262,32.444,44.422,35.999C316.565,162.65,332.792,158.302,340.094,145.655z"/> <path style="fill:#AA6EFF;" d="M171.906,48.552c-7.302,12.647-2.954,28.874,9.694,36.177c6.141,3.545,33.348,15.247,53.306,20.455 c3.833,0.999,7.862-0.678,9.857-4.099l9.082-15.585c0.007-0.011,0.011-0.019,0.018-0.03c1.985-3.438,1.43-7.779-1.359-10.61 c-14.479-14.696-38.262-32.444-44.422-35.999C195.435,31.556,179.208,35.905,171.906,48.552z"/> </g> <g> <path style="fill:#C86EFF;" d="M171.906,145.655c-7.302-12.647-2.954-28.874,9.694-36.177c6.141-3.545,33.348-15.247,53.306-20.455 c3.833-0.999,7.862,0.678,9.857,4.099l9.082,15.585c0.007,0.011,0.011,0.019,0.018,0.03c1.985,3.438,1.43,7.779-1.359,10.61 c-14.479,14.696-38.262,32.444-44.422,35.999C195.435,162.65,179.208,158.302,171.906,145.655z"/> <path style="fill:#C86EFF;" d="M340.094,48.552c7.302,12.647,2.954,28.874-9.694,36.177c-6.141,3.545-33.348,15.247-53.306,20.455 c-3.833,0.999-7.862-0.678-9.857-4.099l-9.082-15.585c-0.007-0.011-0.011-0.019-0.018-0.03c-1.985-3.438-1.43-7.779,1.359-10.61 c14.479-14.696,38.262-32.444,44.422-35.999C316.565,31.556,332.792,35.905,340.094,48.552z"/> </g> <g> <path style="fill:#8C64FF;" d="M256,194.207c14.603,0,26.483-11.88,26.483-26.483c0-7.091-3.47-36.504-8.94-56.392 c-1.052-3.819-4.517-6.47-8.479-6.487l-18.039-0.073c-0.013,0-0.022,0-0.034,0c-3.97,0-7.453,2.65-8.509,6.483 c-5.486,19.887-8.964,49.357-8.964,56.469C229.517,182.327,241.397,194.207,256,194.207z"/> <path style="fill:#8C64FF;" d="M256,0c-14.603,0-26.483,11.88-26.483,26.483c0,7.091,3.47,36.504,8.94,56.392 c1.052,3.819,4.518,6.47,8.479,6.487l18.039,0.073c0.013,0,0.022,0,0.034,0c3.97,0,7.453-2.65,8.509-6.483 c5.486-19.887,8.964-49.357,8.964-56.469C282.483,11.88,270.603,0,256,0z"/> </g> <circle style="fill:#FFDCA0;" cx="256" cy="97.103" r="22.069"/> <g> <path style="fill:#FFC346;" d="M17.655,132.414c0,14.603,11.88,26.483,26.483,26.483c6.508,0,20.703-2.65,32.285-6.931 c3.47-1.284,5.768-4.59,5.768-8.28c0-0.039,0-0.077,0-0.12l-0.306-22.655c-0.052-3.663-2.358-6.914-5.798-8.172 c-11.51-4.204-25.544-6.807-31.949-6.807C29.535,105.931,17.655,117.811,17.655,132.414z"/> <path style="fill:#FFC346;" d="M158.897,132.414c0-14.603-11.88-26.483-26.483-26.483c-6.508,0-20.703,2.65-32.285,6.931 c-3.47,1.284-5.768,4.59-5.768,8.28c0,0.039,0,0.077,0,0.12l0.306,22.655c0.052,3.663,2.358,6.914,5.798,8.172 c11.51,4.204,25.544,6.807,31.949,6.807C147.017,158.897,158.897,147.017,158.897,132.414z"/> </g> <circle style="fill:#FFEAC6;" cx="88.276" cy="132.414" r="22.069"/> <path style="fill:#82D78C;" d="M131.599,230.33c-11.022-2.522-23.506,0.828-32.595,9.916c-6.936,6.936-10.505,15.848-10.696,24.58 h-0.068c-0.191-8.733-3.759-17.644-10.696-24.58c-9.088-9.089-21.572-12.438-32.595-9.916c-2.522,11.022,0.828,23.506,9.916,32.595 c6.936,6.936,15.848,10.504,24.58,10.695v0.035h17.655v-0.034c8.733-0.191,17.644-3.758,24.58-10.695 C130.773,253.837,134.122,241.353,131.599,230.33z"/> <rect x="414.897" y="194.207" style="fill:#76B580;" width="17.655" height="123.586"/> <g> <path style="fill:#FFD246;" d="M423.724,61.793c-14.603,0-26.483,11.88-26.483,26.483c0,6.508,2.651,20.703,6.931,32.285 c1.284,3.47,4.59,5.768,8.28,5.768c0.039,0,0.077,0,0.12,0l22.655-0.306c3.663-0.052,6.914-2.358,8.172-5.798 c4.204-11.51,6.807-25.544,6.807-31.949C450.207,73.673,438.327,61.793,423.724,61.793z"/> <path style="fill:#FFD246;" d="M423.724,203.034c14.603,0,26.483-11.88,26.483-26.483c0-6.508-2.651-20.703-6.931-32.285 c-1.284-3.47-4.59-5.768-8.28-5.768c-0.039,0-0.077,0-0.12,0l-22.655,0.306c-3.663,0.052-6.914,2.358-8.172,5.798 c-4.204,11.51-6.807,25.544-6.807,31.949C397.241,191.155,409.121,203.034,423.724,203.034z"/> </g> <g> <path style="fill:#FFC346;" d="M353.103,132.414c0,14.603,11.88,26.483,26.483,26.483c6.508,0,20.703-2.65,32.285-6.931 c3.47-1.284,5.768-4.59,5.768-8.28c0-0.039,0-0.077,0-0.12l-0.306-22.655c-0.052-3.663-2.358-6.914-5.798-8.172 c-11.51-4.204-25.544-6.807-31.949-6.807C364.983,105.931,353.103,117.811,353.103,132.414z"/> <path style="fill:#FFC346;" d="M494.345,132.414c0-14.603-11.88-26.483-26.483-26.483c-6.508,0-20.703,2.65-32.285,6.931 c-3.47,1.284-5.768,4.59-5.768,8.28c0,0.039,0,0.077,0,0.12l0.306,22.655c0.052,3.663,2.358,6.914,5.798,8.172 c11.51,4.204,25.544,6.807,31.949,6.807C482.465,158.897,494.345,147.017,494.345,132.414z"/> </g> <circle style="fill:#FFEAC6;" cx="423.724" cy="132.414" r="22.069"/> <path style="fill:#82D78C;" d="M467.048,230.33c-11.022-2.522-23.506,0.828-32.595,9.916c-6.936,6.936-10.505,15.848-10.696,24.58 h-0.068c-0.191-8.733-3.759-17.644-10.696-24.58c-9.088-9.089-21.572-12.438-32.595-9.916c-2.522,11.022,0.828,23.506,9.916,32.595 c6.936,6.936,15.848,10.504,24.58,10.695v0.035h17.655v-0.034c8.733-0.191,17.644-3.758,24.58-10.695 C466.221,253.837,469.57,241.353,467.048,230.33z"/> <path style="fill:#B9785F;" d="M17.655,326.621l8.364,150.559c0.26,4.678,4.129,8.338,8.814,8.338h442.333 c4.685,0,8.554-3.66,8.814-8.338l8.364-150.559H17.655z"/> <path style="fill:#AA6B57;" d="M70.634,477.18L62.27,326.621H18.132l8.364,150.559c0.26,4.678,4.129,8.338,8.814,8.338h44.138 C74.763,485.517,70.894,481.857,70.634,477.18z"/> <g> <path style="fill:#9B5F50;" d="M467.862,512H44.138c-4.875,0-8.828-3.953-8.828-8.828v-17.655H476.69v17.655 C476.69,508.047,472.737,512,467.862,512z"/> <path style="fill:#9B5F50;" d="M494.345,335.448H17.655c-4.875,0-8.828-3.953-8.828-8.828v-8.828c0-4.875,3.953-8.828,8.828-8.828 h476.69c4.875,0,8.828,3.953,8.828,8.828v8.828C503.172,331.496,499.22,335.448,494.345,335.448z"/> </g> <path style="fill:#CB916F;" d="M460.474,467.862c-0.163,0-0.332-0.004-0.5-0.013c-4.866-0.271-8.595-4.436-8.323-9.306l2.94-52.957 c0.271-4.866,4.47-8.534,9.302-8.328c4.871,0.271,8.599,4.436,8.328,9.306l-2.94,52.961 C469.017,464.224,465.125,467.862,460.474,467.862z"/> <path style="fill:#D5A079;" d="M465.625,379.586c-0.163,0-0.328-0.004-0.495-0.013c-4.866-0.267-8.595-4.431-8.328-9.302 l0.487-8.828c0.267-4.866,4.306-8.612,9.302-8.328c4.866,0.267,8.595,4.431,8.328,9.302l-0.487,8.828 C474.173,375.948,470.276,379.586,465.625,379.586z"/> </g>
</svg>